<?xml version="1.0" encoding="UTF-8" standalone="no"?>
<svg
   id="Layer_1"
   data-name="Layer 1"
   viewBox="0 0 474.98 59.61"
   version="1.1"
   sodipodi:docname="thisisnotapaperclp2.svg"
   inkscape:version="1.4.2 (ebf0e940, 2025-05-08)"
   xmlns:inkscape="http://www.inkscape.org/namespaces/inkscape"
   xmlns:sodipodi="http://sodipodi.sourceforge.net/DTD/sodipodi-0.dtd"
   xmlns="http://www.w3.org/2000/svg"
   xmlns:svg="http://www.w3.org/2000/svg">
  <sodipodi:namedview
     id="namedview12"
     pagecolor="#ffffff"
     bordercolor="#000000"
     borderopacity="0.25"
     inkscape:showpageshadow="2"
     inkscape:pageopacity="0.0"
     inkscape:pagecheckerboard="0"
     inkscape:deskcolor="#d1d1d1"
     inkscape:zoom="2"
     inkscape:cx="239.5"
     inkscape:cy="30.25"
     inkscape:window-width="1776"
     inkscape:window-height="804"
     inkscape:window-x="0"
     inkscape:window-y="0"
     inkscape:window-maximized="0"
     inkscape:current-layer="Layer_1" />
  <defs
     id="defs1">
    <style
       id="style1">
      .cls-1 {
        fill: #fff;
      }
    </style>
  </defs>
  <path
     id="path2"
     d="m 319.37305,15.970703 c -0.82875,-0.04375 -1.88758,0.859531 -2.39258,2.519531 -7.43,-5.25 -14.82039,3.70961 -17.90039,9.84961 -1.74,3.48 -3.28914,10.210859 -6.61914,12.380859 -2.88,1.88 -2.29094,-0.07094 -1.71094,-2.210937 1.76,-6.45 9.25906,-19.89 -2.46094,-21 L 279.5,23 l 1,-4.990234 c -4.51,-0.42 -4.1307,1.929296 -6.2207,4.029296 -1.91,1.91 -6.28852,2.371641 -5.72852,5.931641 l 2.60938,0.580078 3.08984,-3.03125 0.25977,0.75 c -2.5,8.54 -6.29915,17.560625 -8.36915,26.140625 -0.27,1.12 -1.14156,4.560625 -1.10156,5.390625 0.11,2.04 3.84008,2.530078 4.58008,0.580078 2.03,-6.23 3.33023,-13.051718 5.24024,-19.261718 2.22,-7.22 4.84062,-11.019375 10.64062,-15.859375 5.77,-4.82 5.49086,-2.319141 4.38086,3.880859 -0.86,4.77 -5.16156,10.259609 -4.35156,14.599609 1.01,5.38 8.54976,4.508829 10.50976,0.298828 l 0.71094,-0.01953 c 3.46,5.58 9.81953,4.85 12.76953,-0.5 1.49,-0.23 0.80047,1.399766 2.23047,2.509766 3.69,2.85 5.76977,0.440234 9.25977,-1.009766 l -4.36915,14.861328 c 0.03,1.88 2.97993,2.099688 4.16993,1.179688 4.1,-8.66 4.80922,-22.291016 10.69922,-29.791016 1.07,-1.36 4.86039,-5.079843 6.15039,-6.089843 0.57,-0.440001 4.02937,-2.589688 4.35937,-2.429688 1.57,0.73 0.37094,5.940234 -0.0391,7.490234 -0.96,3.63 -9.71094,18.600079 -0.46094,17.580078 2.33,-0.26 6.89992,-3.549843 8.16992,-3.339843 0.37,0.06 0.57086,1.078984 1.13086,1.458984 6.33,4.27 13.60946,1.290313 19.43946,-2.429687 0.77,0.67 -0.51914,1.560078 -0.61915,2.330078 -0.26999,2.05 1.94891,2.109687 3.37891,1.429687 1.73,-0.83 3.23086,-8.20914 4.13086,-10.36914 1.96,-4.71 7.39984,-12.930157 12.33984,-14.660157 3.23,-1.14 2.58954,1.509532 3.76954,1.269532 1.52,-0.99 1.36929,-2.519922 1.27929,-4.169922 -0.71,-2.93 -12.40929,1.660156 -12.52929,5.160156 l -1,-0.25 c 0.29,-1.29 1.28015,-2.380391 0.41015,-3.650391 l -3.08008,-0.15039 -5.48046,15.910156 c -1.44001,0.84 -2.07985,2.310391 -3.33985,3.400391 -3.62,3.14 -14.20875,9.100546 -16.46875,2.060546 0.1,-0.61 7.88852,-5.501015 9.22852,-6.791015 3.18,-3.06 10.95,-12.668828 5,-16.048828 -5.95,-3.38 -14.21899,7.039843 -16.20899,11.839843 -1.1,2.67 -1.49078,7.290313 -3.05078,9.320313 -0.51,0.66 -5.20953,4.379375 -5.76953,4.359375 -1.89,-1.7 0.43,-4.270234 1,-5.990234 1.26,-3.85 3.61977,-8.899297 3.75977,-12.779297 0.13,-3.77 -2.66071,-6.180703 -6.22071,-6.220703 L 332,23 c -0.37,-0.39 2.70938,-4.280625 -0.14062,-5.640625 -1.23001,-0.59 -2.44844,0.07156 -2.89844,1.351563 -2,5.569999 -3.63086,15.39914 -7.63086,19.61914 l -0.01,-0.0098 c -2.86,3.01 -8.63094,6.099063 -7.21093,-0.960937 1.14999,-5.73 5.18148,-12.728516 6.27148,-18.228516 0.42,-2.125 -0.17906,-3.116406 -1.00781,-3.160156 z m 45.67578,3.441406 c 0.0389,0.0015 0.0771,0.0062 0.11328,0.01172 0.001,1.9e-4 0.003,-1.95e-4 0.004,0 0.0227,0.0036 0.0448,0.0084 0.0664,0.01367 0.003,7.87e-4 0.007,0.0011 0.01,0.002 0.0521,0.01339 0.1016,0.03301 0.14648,0.05664 5.3e-4,2.77e-4 0.001,-2.79e-4 0.002,0 0.0245,0.013 0.0481,0.02677 0.0703,0.04297 0.0135,0.07945 0.0336,0.158687 0.0586,0.238282 1.9e-4,6.1e-4 -1.9e-4,0.0013 0,0.002 0.14205,0.450795 0.42474,0.905413 0.33985,1.380859 -0.005,0.02658 -0.0118,0.05673 -0.0215,0.08984 -0.029,0.09937 -0.0804,0.226707 -0.15039,0.378906 -0.86295,1.877422 -4.61289,7.438592 -5.48828,8.332032 -0.5098,0.532294 -3.68994,2.873779 -5.49805,3.759765 -0.30211,0.148039 -0.56477,0.255112 -0.77148,0.306641 -0.0773,0.01928 -0.14667,0.03037 -0.20703,0.0332 -0.10061,0.0047 -0.17655,-0.01369 -0.22266,-0.06055 0.0237,-0.35126 0.0701,-0.716349 0.13477,-1.089844 2.1e-4,-0.0012 -2.2e-4,-0.0027 0,-0.0039 0.0648,-0.373657 0.14904,-0.755644 0.25,-1.142578 0.40532,-1.553498 1.08218,-3.177784 1.87304,-4.583984 2.9e-4,-5.04e-4 -2.8e-4,-0.0015 0,-0.002 0.39529,-0.7027 0.81946,-1.350703 1.25196,-1.908203 0.23843,-0.308283 0.78271,-0.867745 1.47265,-1.513672 0.18986,-0.17792 0.41966,-0.35764 0.63086,-0.546875 0.55481,-0.497488 1.10863,-0.981034 1.74024,-1.478515 0.69659,-0.549533 1.37457,-1.035072 2.0332,-1.439453 0.27294,-0.167757 0.54728,-0.346443 0.79687,-0.470704 0.19024,-0.09471 0.37137,-0.172481 0.54297,-0.236328 0.13684,-0.05101 0.2642,-0.09048 0.38672,-0.11914 0.0267,-0.0062 0.0542,-0.01248 0.0801,-0.01758 0.0314,-0.0062 0.0615,-0.01114 0.0918,-0.01563 0.0455,-0.0067 0.09,-0.01092 0.13281,-0.01367 0.0449,-0.0029 0.0891,-0.0074 0.13086,-0.0059 z m -53.10156,0.53125 c 0.0201,-8.95e-4 0.0404,0.0025 0.0605,0.002 0.004,-1.27e-4 0.008,-0.0018 0.0117,-0.002 0.0332,-9.82e-4 0.0664,0.0041 0.0996,0.0039 0.12409,-9.8e-5 0.24896,-7.15e-4 0.37305,0.01172 0.2227,0.02145 0.44544,0.06352 0.66797,0.13086 0.16727,0.09376 0.32227,0.196569 0.46484,0.30664 4.2e-4,3.2e-4 0.002,-3.2e-4 0.002,0 1.73785,1.335598 1.69229,3.805696 0.95899,5.796875 -0.0117,0.03214 -0.0231,0.06382 -0.0352,0.0957 -0.96,2.5 -5.59031,10.531641 -7.32031,12.681641 -1.065,1.3275 -2.04323,2.286873 -2.89649,2.863281 -0.31998,0.216211 -0.62338,0.378558 -0.90625,0.486328 -0.0937,0.0356 -0.1861,0.06626 -0.27539,0.08984 -0.0899,0.02376 -0.17837,0.0412 -0.26367,0.05273 -0.25579,0.03426 -0.49114,0.01428 -0.70312,-0.0625 -0.0353,-0.01273 -0.0694,-0.02713 -0.10352,-0.04297 -0.0341,-0.01586 -0.0668,-0.03376 -0.0996,-0.05273 -0.0655,-0.03792 -0.12922,-0.08239 -0.18945,-0.132813 -0.36104,-0.302447 -0.62578,-0.830732 -0.77735,-1.589844 -1.1e-4,-5.8e-4 1.2e-4,-0.0014 0,-0.002 -0.0505,-0.253398 -0.0885,-0.530794 -0.11328,-0.835937 -0.0744,-0.915337 -0.0297,-2.065703 0.14844,-3.455079 0.39657,-3.133709 3.64682,-10.510929 6.9961,-14.15039 0.23872,-0.259636 0.47804,-0.501996 0.71679,-0.720703 0.23924,-0.2189 0.47957,-0.415872 0.7168,-0.587891 0.35595,-0.25833 0.7088,-0.459373 1.05469,-0.595703 7.8e-4,-3.08e-4 0.001,-0.0016 0.002,-0.002 0.11555,-0.04545 0.22983,-0.08292 0.34375,-0.113281 0.0167,-0.0044 0.0341,-0.0094 0.0508,-0.01367 0.33902,-0.09047 0.6766,-0.147032 1.01563,-0.16211 z"
     style="display:inline" />
  <path
     d="m 430,0 c 0.28,1.81 -0.36,3.24 -0.86,4.89 -2.75,9.15 -7.83,18.27 -10.78,27.22 -1.64,4.99 -4.39,14.9 4.3,8.8 7.98,-5.61 8.31,-14.68 13.17,-22.43 2.06,-0.1 3.44,-0.25 3.16,2.23 -0.4,3.64 -5.01,11.08 -6.15,15.38 -0.25,0.93 -1.11,5.34 -0.78,5.85 1.54,1.04 4.13,-0.15 5.42,-1.2 3.45,-2.8 8.17,-8.26 10.28,-12.23 0.93,-1.74 2.44,-6.99 3.26,-7.75 1.4,-1.29 3.67,0.15 5.48,-0.26 0.06,0.47 -1.8,2.77 -0.26,2.49 3.14,-3.14 8.58,-8.07 12.79,-3.78 2.66,2.72 0.63,10.54 -0.66,13.9 -0.85,2.23 -5.36,7.71 -4.15,9.41 1.94,1.45 4.55,-0.68 5.98,-2.09 1.56,-1.54 1.91,-4.72 4.78,-2.14 0.24,4.59 -8.02,8.71 -11.63,7.6 -0.19,-0.06 -3,-2.24 -3.1,-2.4 -1.63,-2.67 2.88,-9.2 3.98,-12.02 1.35,-3.46 2.59,-7.3 1.76,-10.98 -0.91,-0.64 -6.71,4.48 -7.76,5.48 -1.79,1.72 -3.63,3.47 -4.82,5.68 -3.75,8.42 -5.77,17.64 -8.54,26.46 -0.54,2.12 -4.81,1.82 -4.77,-0.28 l 7.4,-22.85 c -2.7,2.1 -5.2,6.41 -8.02,8.23 -2.82,1.82 -7.48,2.89 -10.45,1 -1.24,-0.79 -1.25,-3.01 -2.27,-2.73 -3.26,5.31 -14.08,7.27 -14.51,-1 -5.52,3.37 -12.19,7.91 -18.77,4.28 -5.87,-3.24 -4.06,-10.32 -1.87,-15.41 2.31,-5.36 12.71,-17.86 18.67,-10.89 3.39,3.96 -1.49,11.58 -6.24,9.48 -1.28,-3.34 4.41,-5.05 3.23,-7.44 -1.08,-2.18 -4.02,-0.29 -5.29,0.73 -3.96,3.21 -9.29,13.17 -7.61,18.12 2.96,8.72 15.4,-1.61 18.96,-5.02 L 425.37,1.61 c 0.84,-1.61 3.01,-1.65 4.62,-1.63 z"
     id="path3"
     style="display:inline" />
  <path
     d="m 22.51,26.5 c 2.9,-3.64 4.38,-7.04 9.14,-8.6 4.41,-1.45 9.85,-0.25 9.23,5.21 -0.58,5.18 -5.13,11.69 -5.92,17.15 0.38,4.96 4.98,2.36 7.28,0.22 3.25,-3.02 2.96,-7.67 4.09,-11.91 0.73,-2.74 1.94,-5.29 2.4,-8.1 L 53,19.5 c 0.99,1.07 -3.75,14.98 -3.99,17.75 -0.8,9.2 5.4,4.02 8.75,0.25 4.43,-4.98 8.28,-11.55 11.72,-17.28 5.74,-2.68 2.24,4.21 2.84,6.66 0.47,1.89 2.24,3 3.1,4.44 3.87,6.5 3.3,16.22 -6.17,16.21 -6.97,0 -3.35,-11.39 2.54,-7.06 0.66,1.07 -1.13,2.27 -1.73,2.82 -0.78,0.72 -0.46,0.5 0.21,1.19 5.29,-0.34 5.54,-6.19 3.44,-9.95 l -4.45,-6.05 c -4.89,6.73 -11.52,20.27 -21.75,16.25 -0.89,-0.35 -2.03,-1.56 -2.75,-1.57 -1.19,-0.02 -4.45,3.05 -7.13,3.2 -2.35,0.13 -6.97,-1.89 -7.06,-4.6 -0.19,-5.96 4.55,-13.75 5.84,-19.67 0.22,-1.09 -0.6,-1.96 -1.65,-2.1 -0.71,-0.02 -4.08,2.13 -4.77,2.73 -3.36,2.88 -8.29,12.82 -9.88,17.12 -0.52,1.4 -0.45,3.96 -1.32,4.69 -1.61,1.36 -3.41,-1.04 -4.54,-1.05 -0.9,0 -3.76,2.52 -6.45,2.44 C 5.58,45.85 1.55,43.66 0.63,41.58 -1.65,36.43 2.91,26.93 3.5,21.46 L 0.98,21.22 0.51,19.72 C 0.85,18.66 3.58,18.85 4.24,17.95 5.1,16.76 6.16,3.82 10.25,8.98 11.66,10.76 9.36,16.1 9.49,18.45 9.75,18.71 15.28,17.79 15,19.7 14.55,22.79 8.97,20.8 7.94,22.27 7.78,26.25 2.39,38.66 5.21,41.48 7.55,43.82 14.93,39.46 15.98,36.7 18.15,30.97 18.52,22.95 20.94,17.16 21.56,14.51 22.96,2.7 24.47,1.69 25.82,1.19 27.54,1.13 28.14,2.6 29.39,5.33 22.72,22.33 22.5,26.46 Z"
     id="path4"
     style="display:inline" />
  <path
     d="m 212.51,15 c 1.08,-0.4 1.93,-1.31 2.99,-1.75 4.65,-1.92 7.13,-1.05 2.46,2.96 -2.22,1.91 -5.01,2.52 -7.18,4.32 -1.48,4.3 -3.59,8.88 -4.75,13.25 -1.97,7.47 -1.41,11.01 6.63,6.63 1.19,-0.65 7.29,-6.4 7.34,-2.69 0.05,3.47 -9.58,8.53 -13.02,8.07 -9.71,-1.3 -5.65,-11.15 -3.99,-17.3 l -5.91,2.58 c -0.45,6.4 -6.35,14.95 -13.34,14.81 -2.26,-0.04 -6.99,-2.25 -7.25,-4.9 -2.56,2.35 -6.81,5.5 -10.47,4.23 -8.75,-3.04 -0.31,-17.26 0.77,-23.21 0.12,-0.63 0.17,-1.34 -0.55,-1.52 -2.12,-0.52 -8.58,6.29 -9.95,8.04 -3.44,4.42 -5.13,9.96 -7.57,14.94 -5.58,3.09 -3.35,-4.69 -2.6,-7.6 0.87,-3.38 2.04,-7.05 3.02,-10.48 0.47,-1.63 1.73,-6.96 3.2,-7.33 l 2.6,1.26 -1.44,6.17 c 3.61,-3.41 6.4,-6.93 11.48,-8.3 11.93,0.58 2.03,15.04 1.04,21.59 -0.01,1.2 0.76,3.73 2.21,3.72 2.31,-1.26 5.63,-3.38 6.68,-5.83 0.81,-1.89 0.63,-3.86 1.24,-5.76 2.29,-7.22 7.98,-15.04 16.58,-13.4 2.34,0.45 5.62,4.85 2.76,6.26 -3.73,1.83 -2.83,-3.98 -5.62,-3.69 -6.51,0.69 -10.62,12.37 -9.62,17.93 2.06,11.48 10.81,-0.51 12.21,-5.79 l 1.23,-6.24 c 2.44,-1.77 3.24,1.02 3.9,1.42 1.54,0.92 7.53,-3.39 7.9,-5.39 -0.65,-0.49 -4.37,1.27 -4.49,-0.25 -0.12,-1.52 4.45,-2.37 5.51,-3.98 0.99,-1.51 1.49,-6.37 2.08,-7.17 0.14,-0.2 4.15,-1.93 4.67,-1.12 L 212.5,15 Z"
     id="path5"
     style="display:inline" />
  <path
     d="m 121.5,39.5 c 4.41,-0.42 4.42,-5.85 4.01,-9.26 -0.38,-3.16 -3.26,-5.33 -5.51,-7.24 -1.24,3.87 -2.42,7.77 -4.42,11.33 -1.19,2.12 -4.91,7.43 -6.83,8.67 -3.18,2.06 -9.07,3.39 -12.21,0.7 -3.75,-3.21 0.6,-11.76 1,-15.98 l -1.49,-1.89 c 0.52,-1.56 2.02,-2.36 2.88,-3.65 1.8,-2.7 0.81,-4.75 6.07,-4.18 -0.95,5.88 -3.91,12.05 -4.95,17.79 -0.9,5 -1.17,8.38 4.72,5.22 5.42,-2.91 9.17,-11.33 11.6,-16.9 0.73,-1.67 2.42,-8.79 3.87,-8.95 l 2.07,0.82 c -2.01,6.09 5.34,8.41 6.94,12.52 2.04,5.24 1.12,12.6 -4.88,14.61 -3.5,1.17 -9.92,-1.15 -7.79,-5.29 2.77,-5.38 7.65,-5.15 4.93,1.68 z"
     id="path6"
     style="display:inline" />
  <path
     d="m 252.39,24.89 c -0.41,0.41 -2.31,0.52 -2.77,0 -1.14,-1.26 0.12,-5.17 -3.87,-4.95 -2.66,0.15 -7.26,7.27 -8.34,9.72 -4.53,10.28 -1.37,19.5 6.49,5.99 0.99,-1.69 3.16,-7.67 4.45,-8.06 5.74,-1.75 1.54,5.41 0.97,7.97 -0.82,3.67 -1.61,8.51 3.64,5.13 2.63,-1.69 5.35,-8.11 7.98,-4.46 -2.56,5.73 -12.14,13.95 -15.94,5.25 -3.22,3.49 -8.28,6.77 -12.32,2.33 -6.02,-6.62 3.34,-23.27 10.48,-26.42 5.86,-2.58 12.13,4.56 9.23,7.48 z"
     id="path7"
     style="display:inline" />
  <path
     d="m 106.34,6.14 c 2.54,-0.09 2.72,2.7 1.39,4.34 -4.56,5.63 -7.03,-4.15 -1.39,-4.34 z"
     id="path8"
     style="display:inline" />
  <path
     d="M 52.63,7.13 C 54.69,4.9 58.9,6.82 56.5,10.26 53.21,14.98 50.29,9.65 52.63,7.13 Z"
     id="path9"
     style="display:inline" />
  <path
     d="m 442.85,6.1 c 4.22,1.05 -0.17,6.42 -2.1,6.27 -2.91,-0.22 -1.7,-6.22 2.1,-6.27 z"
     id="path10"
     style="display:inline" />
</svg>
