<?xml version="1.0" encoding="UTF-8" standalone="no"?>
<svg
   id="Layer_1"
   data-name="Layer 1"
   viewBox="0 0 650.45 436.06"
   version="1.1"
   sodipodi:docname="NotAPaperclippc1.svg"
   inkscape:version="1.4.2 (ebf0e940, 2025-05-08)"
   xmlns:inkscape="http://www.inkscape.org/namespaces/inkscape"
   xmlns:sodipodi="http://sodipodi.sourceforge.net/DTD/sodipodi-0.dtd"
   xmlns="http://www.w3.org/2000/svg"
   xmlns:svg="http://www.w3.org/2000/svg">
  <sodipodi:namedview
     id="namedview4"
     pagecolor="#ffffff"
     bordercolor="#000000"
     borderopacity="0.25"
     inkscape:showpageshadow="2"
     inkscape:pageopacity="0.0"
     inkscape:pagecheckerboard="0"
     inkscape:deskcolor="#d1d1d1"
     showgrid="false"
     inkscape:zoom="1.8448766"
     inkscape:rotation="1"
     inkscape:cx="325.28398"
     inkscape:cy="217.9484"
     inkscape:window-width="1792"
     inkscape:window-height="1048"
     inkscape:window-x="0"
     inkscape:window-y="0"
     inkscape:window-maximized="1"
     inkscape:current-layer="Layer_1" />
  <defs
     id="defs1">
    <style
       id="style1">
      .cls-1 {
        fill: #fff;
      }

      .cls-2 {
        fill: #d32027;
        fill-rule: evenodd;
      }
    </style>
  </defs>
  <path
     class="cls-2"
     d="M536.93.51c-22.01,2.73-32.25,9.31-48.62,15.45-74.66,38.33-138.72,71.22-213.38,109.55-42.02,21.25-83.46,42.76-126.62,59.9-3.32,1.48-6.53,3.06-9.51,4.89-6.44,3.57-6.74,9.88-4.14,16.01,2.32,5.61,4.95,11.91,11.4,10.73,27.6-6.79,64.74-32.53,89.87-44.53,67.99-33.33,195.17-97.4,200.6-100.71s86.77-55.61,125.66-43.72c40.29,12.31,83.15,75.66,48.74,123.43-10.95,15.2-41.64,29.8-58.55,38.87-45.25,24.26-88,44.76-133.45,67.13,14.84-14.7,19.38-16.33,27-47,11.12-44.78-38.84-91.31-82-82-40.91,8.66-76.77,27.35-113.75,45.69-38.22,18.94-192.26,95.61-213.25,107.31-24,16.93-47.38,53.21-32,94,29.83,79.1,90.75,67.99,161,38l309-154c61.91-27.5,147.84-71.58,158.46-96.53,10.7-11.38,26.47-48.29,9.78-92.55-3.53-8.8-30.76-48.35-49.24-57.92s-29.49-14.16-57-12ZM37.04,375.66c-2.11-5.6-9.26-35.39-1.04-51.66,13.05-20.37,37.02-33.73,58.58-44.13,79.3-34.51,157.05-72.9,236.4-110.23,5.88-2.73,12.21-5.83,17.93-7.7,7.19-2.44,18.74-4.05,27.55-3.01l.22.03c23.68,4.65,47.27,25.32,43.23,48.84-1.8,10.57-8.19,20.65-16.07,27.72-14.2,11.76-109.06,56.82-139.19,72.16-5.19,2.64-9.88,4.63-15.93,6.9-9.32,3.55-20.52,7.67-28.22,13.17-3.3,2.37-6.84,5.59-7.78,8.97-1.23,4.16,1.79,13.2,7.72,15.61,3.6,1.46,8.17,1.36,8.17,1.36,0,0-10.76,5.03-13.08,5.99-43.08,19.01-105.86,66.78-156.56,43.66,0,0-7.9-5.27-12.82-11.84s-7.02-10.25-9.13-15.85Z"
     id="path1" />
  <path
     class="cls-1"
     d="M424.28,152.02c3,3,5.65,4.52,9.22,10.44s8.17,16.82,2.93,13.92c-3.62-2.01-6.38-.48-7.94-6.84s-5.99-10.31-7.57-11.02-4.21-8.79,3.35-6.49Z"
     id="path2" />
  <path
     class="cls-1"
     d="M595.9,18.57c4.74,3.63,5.57,4.01,12.09,10.79,8.33,8.66,17.17,21.58,9.08,18.27-5.6-2.29-8.42-5.26-13.61-11.54-5.48-6.64-9.65-8.76-12.08-9.54s-7.02-10.29,4.51-7.98Z"
     id="path3" />
  <path
     class="cls-1"
     d="M48.29,397.99c1.64,1.81-2.11,4.36-5.83,3.51-4.03-.85-9.16-4.58-7.87-9.07.91-2.15,2.41-2.6,3.45-3s1.67-1.73,3.33.42c0,0,1.47,3.19,3.02,4.32s3.89,3.83,3.89,3.83Z"
     id="path4" />
</svg>
